<?xml version="1.0" encoding="utf-8"?>
<!-- Generator: Adobe Illustrator 16.0.0, SVG Export Plug-In . SVG Version: 6.00 Build 0)  -->
<!DOCTYPE svg PUBLIC "-//W3C//DTD SVG 1.1//EN" "http://www.w3.org/Graphics/SVG/1.1/DTD/svg11.dtd">
<svg version="1.1" id="Calque_1" xmlns="http://www.w3.org/2000/svg" xmlns:xlink="http://www.w3.org/1999/xlink" x="0px" y="0px"
	 width="257px" height="230px" viewBox="0 0 257 230" enable-background="new 0 0 257 230" xml:space="preserve">
<path fill="#530404" stroke="#000000" stroke-width="2" stroke-miterlimit="10" d="M244.229,8.802v9.91h-5.743v-9.91h-6.611v9.91
	h-5.743v-9.91h-6.61v9.91h-5.743v-9.91h-6.611v9.91h-12.354v22.6l4.577,10.139v56.912h-6.303v-4.427h-6.726v4.427h-6.726v-4.427
	h-6.726v4.427h-6.726v-4.427h-6.726v4.427h-6.726v-4.427h-6.726v4.427h-6.726v-4.427h-6.727v4.427h-6.726v-4.427h-6.726v4.427
	h-6.726v-4.427h-6.726v4.427h-6.726v-4.427h-6.726v4.427h-6.726v-4.427h-6.726v4.427h-6.727v-4.427H65.3v4.427h-6.156V51.451
	l4.577-10.139v-22.6l0,0v-9.91h-6.61v9.91h-5.743v-9.91h-6.611v9.91h-5.743v-9.91h-6.61v9.91h-5.743v-9.91h-6.611v9.91h-5.743v-9.91
	h-6.61v9.91v7.196v15.404l4.577,10.139v173.012h12.734v-25.072c0-5.886,4.815-10.701,10.701-10.701l0,0
	c5.887,0,10.702,4.815,10.702,10.701v25.072h12.165h0.569h41.595v-29.594c0-15.651,12.805-28.457,28.456-28.457l0,0
	c15.65,0,28.456,12.806,28.456,28.457v29.594h41.74h0.424h12.311v-25.072c0-5.886,4.815-10.701,10.701-10.701l0,0
	c5.887,0,10.702,4.815,10.702,10.701v25.072h12.734V51.451l4.577-10.139V25.908v-7.196v-9.91H244.229z M28.897,128.338h-8.85v-13.62
	h8.85V128.338z M28.897,73.578h-8.85v-13.62h8.85V73.578z M50.834,163.36h-8.85v-13.62h8.85V163.36z M50.834,100.854h-8.85v-13.62
	h8.85V100.854z M216.55,163.36h-8.85v-13.62h8.85V163.36z M216.55,100.854h-8.85v-13.62h8.85V100.854z M238.486,128.338h-8.85
	v-13.62h8.85V128.338z M238.486,73.578h-8.85v-13.62h8.85V73.578z"/>
</svg>
