<?xml version="1.0" encoding="utf-8"?>
<!-- Generator: Adobe Illustrator 16.0.0, SVG Export Plug-In . SVG Version: 6.00 Build 0)  -->
<!DOCTYPE svg PUBLIC "-//W3C//DTD SVG 1.1//EN" "http://www.w3.org/Graphics/SVG/1.1/DTD/svg11.dtd">
<svg version="1.1" id="Calque_1" xmlns="http://www.w3.org/2000/svg" xmlns:xlink="http://www.w3.org/1999/xlink" x="0px" y="0px"
	 width="271px" height="164px" viewBox="0 0 271 164" enable-background="new 0 0 271 164" xml:space="preserve">
<g>
	<path fill="#530404" stroke="#000000" stroke-width="2" stroke-miterlimit="10" d="M104.579,63.96
		c0.002,0.002,0.004,0.003,0.006,0.005h60.865c0.196-0.128,0.389-0.26,0.579-0.394c5.188-3.654,8.596-9.684,8.596-16.475V29.456
		v-5.679v-16.9h-13.202v16.9h-8.802v-16.9h-13.202v16.9h-8.802v-16.9h-13.202v16.9h-8.802v-16.9H95.411v16.9v5.679v17.641
		C95.411,54.135,99.071,60.354,104.579,63.96z M152.15,40.235h9.578v9.578h-9.578V40.235z M130.229,40.235h9.578v9.578h-9.578
		V40.235z M108.307,40.235h9.578v9.578h-9.578V40.235z"/>
	<path fill="#530404" stroke="#000000" stroke-width="2" stroke-miterlimit="10" d="M168.405,112.688l-2.066-46.118h-62.048
		l-2.066,46.118h10.376v45.458h6.401v-29.475c0-8.973,7.341-16.313,16.313-16.313h0c8.972,0,16.313,7.341,16.313,16.313v29.475
		h7.238v-45.458H168.405z"/>
	<polygon fill="#530404" stroke="#000000" stroke-width="2" stroke-miterlimit="10" points="102.224,112.688 94.38,112.688 
		94.38,108.274 89.095,108.274 89.095,112.688 83.315,112.688 83.315,108.274 78.031,108.274 78.031,112.688 72.251,112.688 
		72.251,108.274 66.966,108.274 66.966,112.688 61.186,112.688 61.186,108.274 55.901,108.274 55.901,112.688 50.122,112.688 
		50.122,108.274 44.837,108.274 44.837,112.688 39.057,112.688 39.057,108.274 33.772,108.274 33.772,92.751 36.415,92.751 
		36.415,89.558 33.552,89.558 33.552,82.677 36.415,82.677 36.415,79.484 9.771,79.484 9.771,82.677 12.634,82.677 12.634,89.558 
		9.771,89.558 9.771,92.751 12.634,92.751 12.634,158.146 33.772,158.146 100.187,158.146 112.601,158.146 112.601,112.688 	"/>
	<polygon fill="#530404" stroke="#000000" stroke-width="2" stroke-miterlimit="10" points="261.695,82.677 261.695,79.484 
		235.053,79.484 235.053,82.677 237.914,82.677 237.914,89.558 235.053,89.558 235.053,92.751 237.694,92.751 237.694,108.274 
		232.41,108.274 232.41,112.688 226.63,112.688 226.63,108.274 221.346,108.274 221.346,112.688 215.565,112.688 215.565,108.274 
		210.281,108.274 210.281,112.688 204.5,112.688 204.5,108.274 199.217,108.274 199.217,112.688 193.436,112.688 193.436,108.274 
		188.151,108.274 188.151,112.688 182.371,112.688 182.371,108.274 177.087,108.274 177.087,112.688 168.405,112.688 
		158.866,112.688 158.866,158.146 170.442,158.146 237.694,158.146 258.832,158.146 258.832,92.751 261.695,92.751 261.695,89.558 
		258.832,89.558 258.832,82.677 	"/>
</g>
</svg>
