<?xml version="1.0" encoding="utf-8"?>
<!-- Generator: Adobe Illustrator 16.0.0, SVG Export Plug-In . SVG Version: 6.00 Build 0)  -->
<!DOCTYPE svg PUBLIC "-//W3C//DTD SVG 1.1//EN" "http://www.w3.org/Graphics/SVG/1.1/DTD/svg11.dtd">
<svg version="1.1" id="Calque_1" xmlns="http://www.w3.org/2000/svg" xmlns:xlink="http://www.w3.org/1999/xlink" x="0px" y="0px"
	 width="214px" height="214px" viewBox="0 0 214 214" enable-background="new 0 0 214 214" xml:space="preserve">
<g>
	<polygon fill="#530404" stroke="#000000" stroke-width="2" stroke-miterlimit="10" points="63.713,206.778 63.713,206.781 
		63.722,206.778 	"/>
	<polygon fill="#530404" stroke="#000000" stroke-width="2" stroke-miterlimit="10" points="64.015,206.547 63.42,206.547 
		64.008,206.781 64.015,206.771 	"/>
	<path fill="#530404" stroke="#000000" stroke-width="2" stroke-miterlimit="10" d="M206.255,18.154l-2.156-10.189l-3.472,10.189
		L197,22.017V26h-42v-3.983l-1.853-3.862l-2.209-10.189l-3.392,10.189L144,22.017v4.12v44.812v19.255V99h0.628
		c-3.235-17-19.295-28.359-34.698-28.359C93.125,70.641,78.567,82,75.332,99H74v-8.797V58.345V26.137v-4.12l-1.962-3.862
		L69.773,7.965l-3.809,10.189L62,22.017V26H20v-3.983l-1.568-3.862L16.364,7.965L12.76,18.154L9,22.017v4.12v44.812v19.255V207
		h33.712H74.92h0.064h69.953h0.038h33.57H208V90.203V58.345V26.137v-4.12L206.255,18.154z"/>
	<g>
		<polygon fill="#FFFFFF" stroke="#000000" stroke-width="2" stroke-miterlimit="10" points="117,91 111,91 111,85 106,85 106,91 
			99,91 99,96 106,96 106,113 111,113 111,96 117,96 		"/>
		<path fill="#FFFFFF" stroke="#000000" stroke-width="2" stroke-miterlimit="10" d="M108,159.435c-8.294,0-15,6.724-15,15.018V197
			h30v-22.548C123,166.158,116.294,159.435,108,159.435z"/>
		<path fill="#FFFFFF" stroke="#000000" stroke-width="2" stroke-miterlimit="10" d="M135,159.435c-3.752,0-7,3.041-7,6.794V186h14
			v-19.771C142,162.476,138.752,159.435,135,159.435z"/>
		<path fill="#FFFFFF" stroke="#000000" stroke-width="2" stroke-miterlimit="10" d="M81,159.435c-3.752,0-7,3.041-7,6.794V186h14
			v-19.771C88,162.476,84.752,159.435,81,159.435z"/>
		<path fill="#FFFFFF" stroke="#000000" stroke-width="2" stroke-miterlimit="10" d="M41,44.606c-3.752,0-7,3.041-7,6.794V71h14
			V51.4C48,47.647,44.752,44.606,41,44.606z"/>
		<path fill="#FFFFFF" stroke="#000000" stroke-width="2" stroke-miterlimit="10" d="M177,44.606c-3.752,0-7,3.041-7,6.794V71h14
			V51.4C184,47.647,180.752,44.606,177,44.606z"/>
		<path fill="#FFFFFF" stroke="#000000" stroke-width="2" stroke-miterlimit="10" d="M41,159.435c-3.752,0-7,3.041-7,6.794V186h14
			v-19.771C48,162.476,44.752,159.435,41,159.435z"/>
		<path fill="#FFFFFF" stroke="#000000" stroke-width="2" stroke-miterlimit="10" d="M177,159.435c-3.752,0-7,3.041-7,6.794V186h14
			v-19.771C184,162.476,180.752,159.435,177,159.435z"/>
	</g>
</g>
</svg>
