<?xml version="1.0" encoding="utf-8"?>
<!-- Generator: Adobe Illustrator 16.0.0, SVG Export Plug-In . SVG Version: 6.00 Build 0)  -->
<!DOCTYPE svg PUBLIC "-//W3C//DTD SVG 1.1//EN" "http://www.w3.org/Graphics/SVG/1.1/DTD/svg11.dtd">
<svg version="1.1" id="Calque_1" xmlns="http://www.w3.org/2000/svg" xmlns:xlink="http://www.w3.org/1999/xlink" x="0px" y="0px"
	 width="209px" height="173px" viewBox="0 0 209 173" enable-background="new 0 0 209 173" xml:space="preserve">
<g>
	<polygon fill="#530404" stroke="#000000" stroke-width="2" stroke-miterlimit="10" points="205,93 170,93 170,86.416 170,77.759 
		170,67.278 166,62.705 162,67.278 162,72.596 125,51.671 125,24.546 103.533,6.852 83,24.546 83,51.751 51,72.079 51,67.278 
		47,62.705 43,67.278 43,77.759 43,86.416 43,93 6,93 6,166 37.623,166 37.623,166 165.054,166 165.054,166 205,166 	"/>
	<g>
		<polygon fill="#FFFFFF" stroke="#000000" stroke-width="2" stroke-miterlimit="10" points="114,29 107,29 107,23 101,23 101,29 
			94,29 94,35 101,35 101,51 107,51 107,35 114,35 		"/>
		<g>
			<path fill="#FFFFFF" stroke="#000000" stroke-width="2" stroke-miterlimit="10" d="M105,120.034c-8.294,0-15,6.724-15,15.018V158
				h30v-22.948C120,126.758,113.294,120.034,105,120.034z"/>
			<path fill="#FFFFFF" stroke="#000000" stroke-width="2" stroke-miterlimit="10" d="M183,120.034c-3.752,0-7,3.042-7,6.794V147h14
				v-20.172C190,123.076,186.752,120.034,183,120.034z"/>
			<path fill="#FFFFFF" stroke="#000000" stroke-width="2" stroke-miterlimit="10" d="M27,120.034c-3.752,0-7,3.042-7,6.794V147h14
				v-20.172C34,123.076,30.752,120.034,27,120.034z"/>
		</g>
	</g>
</g>
</svg>
