<?xml version="1.0" encoding="utf-8"?>
<!-- Generator: Adobe Illustrator 16.0.0, SVG Export Plug-In . SVG Version: 6.00 Build 0)  -->
<!DOCTYPE svg PUBLIC "-//W3C//DTD SVG 1.1//EN" "http://www.w3.org/Graphics/SVG/1.1/DTD/svg11.dtd">
<svg version="1.1" id="Calque_1" xmlns="http://www.w3.org/2000/svg" xmlns:xlink="http://www.w3.org/1999/xlink" x="0px" y="0px"
	 width="258px" height="126px" viewBox="0 0 258 126" enable-background="new 0 0 258 126" xml:space="preserve">
<path id="XMLID_1_" fill="#530404" stroke="#000000" stroke-width="2" stroke-miterlimit="10" d="M241.992,6v11.526h-10.421V6
	h-8.168v11.526h-10.421V6h-8.168v11.526h-10.421V6h-8.167v11.526v4.377v29.142h10.764v18.268h-7.94v-6.904h-5.647v6.904h-7.205
	v-6.904h-5.648v6.904h-7.205v-6.904h-5.648v6.904h-7.205v-6.904h-5.647v6.904h-7.206v-6.904h-5.647v6.904h-7.206v-6.904h-5.647
	v6.904h-7.206v-6.904h-5.647v6.904h-7.206v-6.904H93.43v6.904h-7.206v-6.904h-5.648v6.904h-7.206v-6.904h-5.647v6.904H62.17V51.044
	h10.764V21.903v-4.377V6h-8.167v11.526H54.345V6h-8.167v11.526H35.757V6h-8.168v11.526H17.168V6H9v11.526v4.377v29.142h10.765v69.01
	h5.931H62.17h55.376v-17.106c0-6.618,5.416-12.034,12.034-12.034l0,0c6.618,0,12.033,5.416,12.033,12.034v17.106h55.377h38.965h3.44
	v-69.01h10.765V21.903v-4.377V6H241.992z M35.454,50.939c0-3.032,2.481-5.514,5.513-5.514s5.513,2.481,5.513,5.514v11.47H35.454
	V50.939z M223.706,62.409H212.68v-11.47c0-3.032,2.48-5.514,5.514-5.514c3.031,0,5.513,2.481,5.513,5.514V62.409z"/>
</svg>
