<?xml version="1.0" encoding="utf-8"?>
<!-- Generator: Adobe Illustrator 16.0.0, SVG Export Plug-In . SVG Version: 6.00 Build 0)  -->
<!DOCTYPE svg PUBLIC "-//W3C//DTD SVG 1.1//EN" "http://www.w3.org/Graphics/SVG/1.1/DTD/svg11.dtd">
<svg version="1.1" id="Calque_1" xmlns="http://www.w3.org/2000/svg" xmlns:xlink="http://www.w3.org/1999/xlink" x="0px" y="0px"
	 width="144px" height="272px" viewBox="0 0 144 272" enable-background="new 0 0 144 272" xml:space="preserve">
<g>
	<g>
		<path fill="#530404" stroke="#000000" stroke-width="2" stroke-miterlimit="10" d="M109.182,48.453v23.798H96.787V48.453h-18.59
			v23.798H65.803V48.453h-18.59v23.798H34.818V48.453h-18.59v23.798v7.997v24.841c0,9.91,5.154,18.669,12.909,23.746
			c0.003,0.002,0.006,0.004,0.009,0.006h85.707c0.275-0.18,0.547-0.365,0.815-0.554c7.304-5.146,12.104-13.636,12.104-23.198V80.248
			v-7.997V48.453H109.182z M64.128,110.029V92.781c0-4.56,3.73-8.291,8.29-8.291s8.291,3.731,8.291,8.291v17.248H64.128z"/>
		<path fill="#530404" stroke="#000000" stroke-width="2" stroke-miterlimit="10" d="M121.883,261.463l-5.778-128.953H28.731
			l-5.778,128.953h26.493v-27.824c0-12.634,10.337-22.971,22.971-22.971l0,0c12.635,0,22.972,10.337,22.972,22.971v27.824H121.883z
			 M52.912,172.817H36.331v-17.248c0-4.56,3.73-8.29,8.29-8.29c4.56,0,8.291,3.73,8.291,8.29V172.817z M80.29,172.817H63.709
			v-17.248c0-4.56,3.731-8.29,8.291-8.29s8.29,3.73,8.29,8.29V172.817z M91.088,172.817v-17.248c0-4.56,3.731-8.29,8.291-8.29
			s8.29,3.73,8.29,8.29v17.248H91.088z"/>
	</g>
	<path fill="#530404" stroke="#000000" stroke-width="2" stroke-miterlimit="10" d="M72.906,13.298V12.21h-1.813v60.042h1.813
		v-39.73c8.948,9.645,17.896-12.989,26.844-1.088c0-6.408,0-12.816,0-19.224C90.803,0.309,81.854,22.942,72.906,13.298z"/>
</g>
</svg>
